# xmcd
#
# Track frame offsets:
#	150
#	5107
#	21580
#	41729
#	58541
#	79546
#	101872
#	118618
#	140932
#	163391
#	183303
#	200525
#	217580
#	237905
#	257447
#	274144
#	298290
#	317657
#
# Disc length: 4514 seconds
#
# Revision: 1
# Processed by: cddbd v1.5.1PL0 Copyright (c) Steve Scherf et al.
# Submitted via: audiograbber 1.80
#
DISCID=1311a012
DTITLE=Fabolous - Real Talk
DYEAR=1900
DGENRE=
TTITLE0=Exodus Performed By Black Ice
TTITLE1=Don't Stop Won't Stop
TTITLE2=Real Talk (123)
TTITLE3=Gangsta
TTITLE4=Tit 4 Tat feat. Pharrell
TTITLE5=Baby feat. Mike Shorey
TTITLE6=Girls
TTITLE7=Church feat. Charlie Murphy
TTITLE8=Can You Hear Me
TTITLE9=Do The Damn Thang feat. Young Jeezy
TTITLE10=Holla At Somebody Real feat. Lil' Mo
TTITLE11=It's All Right feat. Sean Paul
TTITLE12=Breathe
TTITLE13=Young and Sexy feat. Pharrell and Mike Shorey
TTITLE14=Round and Round
TTITLE15=In My Hood
TTITLE16=Ghetto feat. Thara
TTITLE17=Po Po feat. Paul Cain and Nate Dogg
EXTD=
EXTT0=
EXTT1=
EXTT2=
EXTT3=
EXTT4=
EXTT5=
EXTT6=
EXTT7=
EXTT8=
EXTT9=
EXTT10=
EXTT11=
EXTT12=
EXTT13=
EXTT14=
EXTT15=
EXTT16=
EXTT17=
PLAYORDER=
